<svg width="146" height="109" viewBox="0 0 146 109" fill="none" xmlns="http://www.w3.org/2000/svg">
<g opacity="0.5">
<path fill-rule="evenodd" clip-rule="evenodd" d="M72.032 4.91296C81.0437 5.10498 91.2683 10.0925 89.8431 20.6586C88.7993 28.399 82.0976 34.6825 74.336 35.2242C65.9941 35.8063 57.1743 29.4041 56.041 20.9104C54.766 11.3569 63.2196 4.72232 72.032 4.91296ZM67.6126 0.611863C63.9593 1.15733 60.4683 3.07573 57.2512 4.79422C56.0234 5.45054 49.7978 9.45153 54.6807 10.4455C42.9159 29.4194 70.6035 47.0431 86.1703 34.7117C93.1607 29.174 96.8409 18.6753 92.3223 10.4571C87.6489 1.95743 76.5659 -0.732779 67.6126 0.611863Z" fill="#89C5CC"/>
<path fill-rule="evenodd" clip-rule="evenodd" d="M65.4592 16.7619C65.4592 20.3055 70.9595 20.3055 70.9595 16.7619C70.9595 13.2182 65.4592 13.2182 65.4592 16.7619Z" fill="#89C5CC"/>
<path fill-rule="evenodd" clip-rule="evenodd" d="M75.6575 17.3294C75.6575 21.1713 81.6208 21.1713 81.6208 17.3294C81.6208 13.4875 75.6575 13.4875 75.6575 17.3294Z" fill="#89C5CC"/>
<path fill-rule="evenodd" clip-rule="evenodd" d="M68.7752 24.9274C67.9724 27.8421 77.1232 29.337 77.4277 25.9636C77.5728 24.3518 69.3333 22.894 68.7752 24.9274Z" fill="#89C5CC"/>
<path fill-rule="evenodd" clip-rule="evenodd" d="M95.5995 23.1261C106.129 21.8626 116.985 22.4465 127.565 22.7494C130.213 22.826 132.861 22.9002 135.509 22.9442C137.192 22.9725 140.828 23.7805 142.298 22.9925C148.315 19.7656 136.511 18.2053 134.84 18.0569C124.316 17.1909 108.075 16.882 97.5197 17.2906C94.3981 17.4117 93.7233 23.351 95.5995 23.1261Z" fill="#89C5CC"/>
<path fill-rule="evenodd" clip-rule="evenodd" d="M142.98 75.4688C143.07 64.4366 143.466 53.3298 144.314 42.3305C144.659 37.8471 145.074 33.3698 145.417 28.8864C145.579 26.7746 146.329 23.8167 145.088 21.9637C143.809 20.0546 141.003 19.6576 139.312 21.3496C137.288 23.9698 137.876 28.3674 137.624 31.5367C137.237 36.4102 136.77 41.2799 136.537 46.1636C136.088 55.6164 135.983 65.2335 136.743 74.6729C137.102 79.127 137.879 83.4731 138.914 87.8174C139.385 89.7947 143.132 98.6032 142.345 99.818C141.124 101.702 132.099 100.99 130.141 101.042C125.117 101.177 120.092 101.265 115.067 101.361C110.765 101.443 106.463 101.502 102.16 101.54C100.452 101.555 90.4139 101.251 92.6406 103.784C67.7413 105.519 42.366 102.622 17.6183 101.629C16.3683 101.578 14.3229 101.223 12.4351 101.121C12.2089 100.209 12.0231 99.3945 11.9772 98.8282C11.6518 94.8509 11.567 90.8601 11.2143 86.8837C10.5691 79.6085 9.31813 72.4066 8.57376 65.144C7.83124 57.8887 7.90587 50.6117 7.47343 43.3389C7.39927 42.0925 7.22407 31.8846 4.64798 29.4045C5.86928 29.8674 7.83866 29.9277 8.97283 29.8363C18.1532 29.0956 27.2664 27.5005 36.368 26.1312C38.9719 25.7398 44.8809 26.0171 47.0408 24.7156C48.9101 23.5885 49.6498 19.6381 46.398 19.9577C37.3223 20.9298 28.2958 22.4387 19.2915 23.9243C16.8832 24.3214 14.481 24.7462 12.0791 25.1804C10.475 25.4703 6.241 25.448 4.99699 26.4151C3.48601 27.5891 3.32564 28.3878 3.8378 28.9189C3.12587 28.7231 2.27258 29.0306 1.2478 30.0562C-0.689594 32.578 1.13193 38.7887 1.36275 41.7456C1.64038 45.2925 1.77665 48.8454 1.93841 52.3988C2.25034 59.2751 2.97014 66.0563 4.0765 72.8496C5.31634 80.4601 6.37078 88.1017 7.61387 95.7099C7.93738 97.6909 8.35916 99.6227 8.89774 101.537C5.54901 103.249 7.82568 105.973 10.4815 106.456C10.5005 106.46 10.5204 106.462 10.5394 106.466C11.3672 108.485 12.525 110.355 13.4293 107.65C13.4984 107.442 13.5308 107.187 13.5391 106.9C20.3984 107.676 27.938 107.194 34.6911 107.47C49.3189 108.068 64.0371 108.965 78.6797 108.51C84.4766 108.33 90.2911 107.815 96.0393 107.042C99.4071 106.589 102.788 106.048 106.102 105.297C106.339 105.243 106.7 105.187 107.117 105.118C107.185 105.116 107.254 105.114 107.318 105.114C112.393 105.037 117.463 104.901 122.533 104.69C126.789 104.513 131.064 104.422 135.306 104.021C137.941 103.772 143.51 103.818 145.127 101.168C146.598 98.7586 144.139 92.5521 143.79 89.8457C143.176 85.0803 142.941 80.2704 142.98 75.4688Z" fill="#C1DEE2"/>
<path fill-rule="evenodd" clip-rule="evenodd" d="M91.5557 43.6137C87.5011 43.9611 83.7519 45.8652 79.6597 45.8888C76.2253 45.9083 72.8436 44.8818 69.3902 45.0335C65.3392 45.2102 63.1103 47.8299 59.5618 48.7066C56.7368 49.4042 54.957 47.2413 52.4722 46.2849C49.3348 45.0767 47.0174 45.7005 44.3282 47.5275C42.3523 48.8703 37.7443 51.8834 37.78 54.5991C37.8857 62.8246 47.4827 51.4617 49.4173 51.324C51.9879 51.1412 54.8597 54.0712 57.5947 54.2382C61.2109 54.4595 63.5293 52.1283 66.859 51.279C70.2263 50.42 73.8661 51.4724 77.2417 51.7989C81.0933 52.1714 84.4638 51.3128 88.1898 50.3935C91.8009 49.5025 94.878 49.5498 98.547 50.298C101.023 50.8031 107.193 53.7391 108.276 49.964C109.751 44.8229 94.3904 43.3725 91.5557 43.6137Z" fill="#89C5CC"/>
<path fill-rule="evenodd" clip-rule="evenodd" d="M92.7901 59.3024C84.482 60.1086 76.1234 60.8159 67.7773 61.0423C64.1625 61.1406 50.2661 59.5914 51.4985 64.1847C52.5548 68.1231 71.4653 65.6435 75.3169 65.3434C79.569 65.0131 83.8146 64.5511 88.0458 64.0159C89.5452 63.8262 93.1664 64.0224 94.2246 62.7649C95.2331 61.565 94.7358 59.1076 92.7901 59.3024Z" fill="#89C5CC"/>
<path fill-rule="evenodd" clip-rule="evenodd" d="M35.4753 80.221C35.2862 80.3008 35.2862 80.3008 35.4753 80.221V80.221ZM37.2278 80.1973C39.2992 80.1319 38.8551 79.0396 40.9214 79.6087C41.8743 79.8713 41.9721 79.4816 42.7109 80.3926C44.1524 82.1695 42.7948 86.0393 41.3737 87.4711C36.1126 92.7731 29.799 80.433 37.2278 80.1973ZM37.2278 74.9955C22.8248 75.4792 28.8511 97.7282 41.3867 93.1864C46.5639 91.3107 49.8181 82.8606 46.773 78.1119C45.2916 75.8021 43.4029 75.3911 40.9214 75.2311C40.3453 75.194 39.6204 76.0312 39.2607 75.9932C38.406 75.9027 38.4857 74.9482 37.2278 74.9955Z" fill="#89C5CC"/>
<path fill-rule="evenodd" clip-rule="evenodd" d="M71.6707 80.9833C71.4139 80.904 76.2185 82.3011 75.6929 81.7542C76.8145 82.9207 75.3063 85.6796 74.0373 86.161C70.9643 87.328 69.2397 82.5492 71.6707 80.9833ZM73.8027 74.9503C69.293 75.5894 65.8126 77.4675 65.1961 82.4824C64.6274 87.1114 67.7551 91.7989 72.6885 91.8893C83.4415 92.086 83.7692 73.5597 73.8027 74.9503Z" fill="#89C5CC"/>
<path fill-rule="evenodd" clip-rule="evenodd" d="M122.893 81.1858C123.523 89.4058 114.999 81.8821 122.893 81.1858V81.1858ZM119.235 72.3916C118.489 73.6662 119.125 75.0183 120.25 75.759C110.196 77.8838 112.473 93.0135 122.704 90.7783C127.907 89.6415 128.863 84.1706 128.088 79.6534C127.719 77.5054 122.366 67.0381 119.235 72.3916Z" fill="#89C5CC"/>
</g>
</svg>
