<svg width="159" height="88" viewBox="0 0 159 88" fill="none" xmlns="http://www.w3.org/2000/svg">
<path fill-rule="evenodd" clip-rule="evenodd" d="M84.2756 1.065C95.9149 0.665528 107.555 0.266035 119.206 0.158077C125.52 0.0996482 131.8 0.210013 138.105 0.571712C140.901 0.732158 143.696 0.887039 146.494 1.00529C146.977 1.02576 147.644 0.992958 148.38 0.95675C150.112 0.871583 152.227 0.767575 153.222 1.29372C158.788 4.23832 147.448 4.56107 146.07 4.53788C142.983 4.48592 139.899 4.33347 136.815 4.18101C134.12 4.04776 131.425 3.91451 128.727 3.84834C111.42 3.42319 94.0074 4.20073 76.6712 4.97488C72.697 5.15234 68.7268 5.32963 64.7628 5.49221C60.5543 5.66494 56.3466 5.77671 52.1394 5.88847C46.1249 6.04824 40.1113 6.20798 34.097 6.54578C31.8005 6.67483 29.5044 6.81148 27.2083 6.94813C23.919 7.14391 20.6296 7.33968 17.339 7.51309C14.763 7.64896 12.1861 7.78065 9.60644 7.84557C9.14202 7.85737 8.53689 7.92193 7.87631 7.99242L7.8763 7.99242H7.87629C6.27699 8.16307 4.35269 8.3684 3.31332 7.94342C2.06268 7.43194 1.0514 6.71689 1.73889 5.20146C2.32047 3.92034 4.4335 4.07394 5.97417 4.18594C6.3948 4.21651 6.77277 4.24399 7.06526 4.23832C11.989 4.1428 16.902 3.86642 21.8169 3.56547C23.6149 3.45542 25.4123 3.34236 27.2094 3.22932L27.2095 3.22931L27.2097 3.2293L27.2098 3.22929L27.2098 3.22929C36.5666 2.64073 45.9146 2.05272 55.2953 1.89284C64.9592 1.72797 74.6172 1.39649 84.2756 1.065ZM145.065 77.6684L148.411 77.6276C150.139 77.7783 150.912 79.5919 149.802 80.9858C148.953 82.0537 145.684 82.102 143.553 82.1335C142.962 82.1422 142.459 82.1496 142.119 82.1771C136.556 82.6241 131.004 82.8254 125.424 82.8787C113.674 82.9905 101.968 83.4941 90.2373 84.1632C78.229 84.8477 66.2105 85.1052 54.1915 85.3627H54.1913C45.3488 85.5521 36.5059 85.7416 27.6666 86.1011C22.6046 86.307 17.5422 86.4609 12.4779 86.5935C11.9337 86.6078 11.2098 86.686 10.3911 86.7744C7.19228 87.1199 2.54409 87.6219 1.49071 85.0814C0.556202 82.8267 1.85525 81.7889 3.75534 81.3166C3.45506 79.9822 3.51062 78.1056 3.54245 77.0308C3.55201 76.7078 3.55943 76.4572 3.55441 76.3155C3.50657 74.9679 3.4733 73.62 3.44004 72.2722C3.40235 70.745 3.36466 69.2178 3.30576 67.6913C3.25246 66.306 3.20279 64.9192 3.15309 63.5314C2.95708 58.0589 2.7606 52.5734 2.33948 47.1227C2.14527 44.6071 1.8369 42.1209 1.52903 39.6387C1.03753 35.676 0.547282 31.7234 0.524749 27.6776C0.52073 26.95 0.484308 26.0399 0.443221 25.0133C0.233007 19.7607 -0.0993176 11.4569 3.16103 8.92817C8.90976 5.5735 7.77341 15.2563 7.26629 19.5774C7.18254 20.2911 7.11596 20.8584 7.10037 21.1967C6.77009 28.3825 7.2182 35.2515 7.9414 42.3918C8.42951 47.214 8.14442 52.02 7.85886 56.8338C7.75687 58.5532 7.65482 60.2735 7.58792 61.9959C7.55482 62.8481 7.52539 63.6999 7.49598 64.5515C7.40545 67.1723 7.31501 69.7907 7.11754 72.4087C7.09626 72.6919 7.08913 73.2351 7.08002 73.9293C7.05433 75.8865 7.01289 79.0442 6.59408 80.9607C7.48607 80.9224 8.3515 80.9319 9.06664 80.9397C9.52239 80.9447 9.91711 80.949 10.2188 80.9399C11.5913 80.8984 12.9639 80.8582 14.3365 80.8179C18.3901 80.6992 22.4438 80.5804 26.4966 80.428C36.0652 80.0682 45.6362 79.948 55.2069 79.8278C66.5114 79.6858 77.8156 79.5438 89.1151 79.0071C107.737 78.122 126.423 77.8949 145.065 77.6684ZM148.519 7.42021C148.509 19.7291 149.461 31.7004 150.573 43.9597C151.261 51.5429 151.812 59.1552 152.251 66.7574C152.271 67.1093 152.268 67.6963 152.264 68.4321V68.433C152.242 72.6366 152.194 81.6949 156.349 79.5282C159.486 77.8918 158.28 68.4048 157.613 63.1554L157.613 63.155C157.467 62.0036 157.346 61.0562 157.303 60.4402C157.212 59.1272 157.122 57.8145 157.032 56.502C156.614 50.4075 156.197 44.3181 155.647 38.2309L155.531 36.9473C154.895 29.9167 154.259 22.8912 154.146 15.8274C154.137 15.2433 154.193 14.4296 154.256 13.5105C154.44 10.8513 154.685 7.31038 153.58 5.89782C152.026 3.9108 148.522 4.49833 148.519 7.42021Z" fill="#69A1AC"/>
<path fill-rule="evenodd" clip-rule="evenodd" d="M84.8076 37.5953C99.6743 30.8691 114.714 24.0645 130.173 19.2196C131.291 18.87 131.997 20.0223 131.744 20.9892C131.482 21.9854 129.064 22.8354 127.46 23.399C126.98 23.5677 126.573 23.7107 126.319 23.8244C124.16 24.7887 121.995 25.7412 119.83 26.6938C117.613 27.6693 115.396 28.6447 113.184 29.6329C108.587 31.6873 103.985 33.7324 99.3826 35.7776C94.4541 37.9678 89.5257 40.158 84.6024 42.3596C84.4158 42.443 84.2293 42.5264 84.0428 42.6099C90.7366 44.9889 97.3928 47.4741 104.02 50.0345C106.284 50.9094 108.541 51.8024 110.798 52.6955C112.075 53.2007 113.352 53.706 114.631 54.2079C115.047 54.3713 115.772 54.5926 116.643 54.8585C119.481 55.7252 123.871 57.0659 124.196 58.4199C124.724 60.6258 118.662 58.4919 116.375 57.6868C116.072 57.58 115.835 57.4966 115.689 57.4498C112.314 56.3713 108.98 55.1695 105.648 53.9684L105.186 53.8022C102.545 52.8507 99.9078 51.889 97.2705 50.9273C92.119 49.0487 86.9676 47.1703 81.7883 45.3681C81.0558 45.1132 80.3229 44.8592 79.5898 44.606C71.2777 48.3395 62.9821 52.1089 54.7136 55.9381C50.2802 57.9915 45.8705 60.0926 41.4728 62.222C40.513 62.6868 39.3244 63.4052 38.0333 64.1855C34.9385 66.0559 31.2546 68.2824 28.7205 68.2271C27.3617 68.197 26.446 67.9057 26.3041 66.2586C26.1581 64.5592 28.3387 63.6677 29.9066 63.0267C30.2819 62.8732 30.6221 62.7341 30.8868 62.6017C35.587 60.2512 40.3163 57.9599 45.0591 55.6975C54.4788 51.2045 63.9867 46.891 73.5284 42.6633C73.5833 42.639 73.6383 42.6146 73.6932 42.5903C68.4013 40.7994 63.0947 39.0511 57.7765 37.3398C57.2455 37.1689 56.1567 36.8674 54.7255 36.471C47.965 34.5985 33.5627 30.6096 34.204 28.2797C34.9388 25.6147 48.4414 30.486 54.4193 32.6426C55.5396 33.0468 56.3956 33.3556 56.8538 33.5016C64.0008 35.7793 71.1279 38.1213 78.2178 40.5698C80.4111 39.5844 82.6075 38.5907 84.8076 37.5953Z" fill="#89C5CC"/>
</svg>
