<svg width="203" height="187" viewBox="0 0 203 187" fill="none" xmlns="http://www.w3.org/2000/svg">
<g opacity="0.5">
<path fill-rule="evenodd" clip-rule="evenodd" d="M89.1752 14.8777C89.1818 15.3175 89.1881 15.7313 89.1975 16.1116C89.4028 24.416 89.2837 33.1462 88.6089 41.4312C88.3762 44.2917 86.2952 47.9174 83.9213 43.9742C82.8775 42.2403 83.0237 38.6798 83.1313 36.0606C83.1601 35.3584 83.1862 34.7239 83.1858 34.2104C83.1836 31.2879 83.3371 28.3356 83.4911 25.3753C83.792 19.588 84.0946 13.7703 83.2382 8.08637C83.2208 7.97133 83.2044 7.86066 83.1885 7.75422C82.8164 5.25467 82.7907 5.08198 80.0421 5.13881C78.8963 5.16261 77.7505 5.19358 76.6046 5.22456C75.4776 5.25503 74.3506 5.2855 73.2235 5.30914C72.1043 5.33265 70.9851 5.35417 69.8657 5.3757C66.3558 5.44321 62.8456 5.51072 59.3375 5.63917C58.7516 5.66078 57.6592 5.7978 56.2805 5.97072C53.5243 6.31643 49.6243 6.8056 46.3418 6.80283C46.3426 6.81694 46.3437 6.83105 46.3447 6.84521C46.3467 6.87051 46.3486 6.89596 46.3492 6.92179C46.386 8.73375 45.9193 10.7564 45.4505 12.7884C45.0578 14.4902 44.6637 16.1985 44.5625 17.7951C44.3217 21.5942 44.3191 25.4335 44.3165 29.2728C44.3133 33.9477 44.3102 38.6226 43.877 43.2252C43.8559 43.4497 43.8432 43.6868 43.8304 43.9268C43.8287 43.9587 43.8269 43.9906 43.8252 44.0226C43.9736 43.9999 44.1182 43.984 44.2572 43.9752C46.6226 43.8251 49.0081 43.8118 51.3898 43.7985C52.7035 43.7911 54.0161 43.7837 55.3234 43.7535C57.671 43.6991 60.0475 43.7016 62.4335 43.7042C67.7008 43.7098 73.0145 43.7156 78.167 43.1087C79.6885 42.9115 80.2206 44.8634 79.5379 45.8753C78.927 46.781 77.2444 46.9277 76.0122 47.0352C75.699 47.0625 75.415 47.0873 75.185 47.1213C71.8619 47.6134 68.4948 47.7851 65.1421 47.9337C61.6206 48.0897 58.0964 48.2063 54.5726 48.3044C53.7342 48.3276 52.6149 48.4407 51.3738 48.5662C48.0975 48.8973 43.9723 49.3143 41.9245 48.3877C39.7243 47.3923 39.7756 46.2869 40.6737 45.4305C40.2796 44.5645 40.2177 43.2988 40.1693 42.309C40.1509 41.9311 40.1343 41.5934 40.1021 41.3335C39.6136 37.3921 39.3193 33.5012 39.3123 29.5261C39.2984 21.7397 39.3142 13.6529 41.4679 6.11593C40.6054 5.73822 40.0849 5.18139 40.0872 4.37877C40.0971 0.335136 52.6824 0.54089 58.665 0.638695C59.7346 0.656183 60.5932 0.67022 61.1311 0.655897C65.4891 0.542031 69.8481 0.527219 74.207 0.550826C75.1281 0.55571 76.1531 0.495461 77.2152 0.433034C79.4741 0.30025 81.9007 0.157616 83.8518 0.610999C88.9778 1.80098 89.101 9.96461 89.1752 14.8777Z" fill="#89C5CC"/>
<path fill-rule="evenodd" clip-rule="evenodd" d="M121.235 1.49728C125.994 1.24547 130.756 1.18762 135.521 1.17003C140.566 1.14457 145.618 1.23529 150.661 1.39035L150.778 1.39388C153.012 1.46099 165.432 1.83404 159.726 4.929C159.394 5.10958 159.019 5.26046 158.61 5.3857C158.852 6.81881 158.881 8.29846 158.842 9.01125C158.695 11.7145 158.598 14.4206 158.501 17.1267C158.435 18.9607 158.369 20.7946 158.287 22.6275C158.063 27.6923 157.849 32.7565 157.675 37.8236C157.653 38.4456 157.686 39.259 157.723 40.1656C157.844 43.1632 158.007 47.1797 156.379 48.6645C154.95 49.9682 153.974 49.7069 153.316 48.8215C149.228 50.0086 140.832 49.6227 136.611 49.4286C135.593 49.3818 134.819 49.3462 134.405 49.3464C133.665 49.3466 132.289 49.439 130.553 49.5556C123.324 50.0412 109.829 50.9476 109.802 47.3838C109.799 47.0409 109.91 46.7336 110.12 46.4583C109.547 45.874 109.032 45.0158 108.701 43.9452C107.513 40.1015 107.401 35.9537 107.313 31.9679C107.188 26.3397 107.187 20.705 107.186 15.0715C107.185 12.1783 107.184 9.28534 107.167 6.3938C106.394 5.35598 106.853 4.16903 107.817 3.34089C109.87 1.57892 114.966 1.55764 118.652 1.54224C119.644 1.53809 120.534 1.53438 121.235 1.49728ZM113.491 44.8951C118.078 43.9157 125.807 44.2309 129.947 44.3998C131.032 44.444 131.87 44.4782 132.342 44.4765C136.571 44.4598 140.801 44.5186 145.027 44.6876C145.465 44.7051 146.113 44.6887 146.877 44.6695C148.412 44.6308 150.412 44.5804 152.111 44.7686C152.088 44.5383 152.073 44.3278 152.064 44.146C151.873 40.3844 152.011 36.5904 152.147 32.8175V32.8173C152.176 32.0154 152.205 31.2144 152.231 30.4149C152.322 27.594 152.442 24.7745 152.563 21.9549L152.563 21.9547L152.563 21.9533C152.639 20.1783 152.714 18.4032 152.783 16.6278C152.813 15.8487 152.768 14.7905 152.718 13.5999V13.5998C152.616 11.1775 152.49 8.20751 152.924 5.92639C151.359 5.89666 149.756 5.78577 148.285 5.68407C146.869 5.58608 145.575 5.49661 144.558 5.49648C143.268 5.49636 141.979 5.4924 140.689 5.48843H140.689H140.689H140.689C137.115 5.47745 133.543 5.46647 129.969 5.53722C129.631 5.54393 129.292 5.55047 128.952 5.55702L128.952 5.55702L128.952 5.55703C124.032 5.65194 119.07 5.74764 114.191 6.39584C113.905 6.43388 113.562 6.50722 113.181 6.59615C113.716 8.83178 113.454 11.9826 113.225 14.7421C113.113 16.0824 113.009 17.3304 113.008 18.3363C113.001 24.5922 113.166 30.8235 113.331 37.0485L113.331 37.0487L113.331 37.049C113.394 39.4036 113.456 41.7574 113.509 44.1113C113.516 44.3923 113.509 44.6534 113.491 44.8951Z" fill="#89C5CC"/>
<path fill-rule="evenodd" clip-rule="evenodd" d="M61.2841 48.1235C58.1566 49.9504 59.8432 57.2587 60.9268 59.7864C62.7079 63.9426 66.322 67.1947 70.2217 69.3521C78.1039 73.7124 89.4659 72.5543 95.427 80.1139C95.4887 80.1921 97.5493 82.232 98.0183 79.5904C98.4034 77.4223 94.5566 74.1114 93.0661 73.0246C88.8272 69.9344 83.3907 68.9379 78.4877 67.3942C73.2588 65.7478 67.5206 62.7127 65.3283 57.3221C64.552 55.4128 66.0319 45.3365 61.2841 48.1235Z" fill="#C1DEE2"/>
<path fill-rule="evenodd" clip-rule="evenodd" d="M132.779 51.637C129.913 52.4271 131.809 56.3708 131.804 58.3454C131.799 60.8088 131.011 63.387 129.493 65.3528C125.643 70.3384 118.104 71.0855 112.452 72.5148C108.348 73.5535 98.529 75.7804 98.1448 81.3307C97.7156 87.529 106.384 79.986 107.117 79.6768C115.219 76.7047 125.701 76.1308 131.955 69.5885C134.536 66.8881 136.062 63.2838 136.305 59.5637C136.441 57.4692 136.465 50.6303 132.779 51.637Z" fill="#C1DEE2"/>
<path fill-rule="evenodd" clip-rule="evenodd" d="M73.5611 106.616C73.4944 95.1475 84.4693 88.2105 94.3936 85.6008C106.322 82.4584 117.434 90.8164 118.84 102.84C120.324 115.529 110.761 125.744 98.1487 126.304C87.0546 126.796 73.632 118.853 73.5611 106.616ZM100.207 91.115C100.853 91.9921 101.435 93.3919 100.135 94.1542C98.8846 94.8828 98.26 94.0068 97.6316 93.1253C97.2343 92.5681 96.8355 92.0087 96.2762 91.851C94.826 91.4427 92.4957 92.9679 91.2879 93.857C90.7976 94.2181 90.0999 94.9952 89.2843 95.9036C86.6881 98.7952 82.8976 103.017 80.8024 99.3842C72.4464 113.813 93.2785 124.612 105.124 119.151C118.134 113.154 115.602 91.2293 100.207 91.115Z" fill="#89C5CC"/>
<path fill-rule="evenodd" clip-rule="evenodd" d="M89.2891 102.777C89.2891 105.409 93.4459 105.409 93.4459 102.777C93.4459 100.174 89.2891 100.063 89.2891 102.777Z" fill="#89C5CC"/>
<path fill-rule="evenodd" clip-rule="evenodd" d="M96.6025 102.283C96.6025 105.507 101.697 105.507 101.697 102.283C101.697 99.0948 96.6025 98.9587 96.6025 102.283Z" fill="#89C5CC"/>
<path fill-rule="evenodd" clip-rule="evenodd" d="M91.3689 109.796C87.2028 112.247 99.1167 117.116 99.5872 112.14C99.7902 109.993 97.711 110.572 96.3253 110.415C94.9993 110.263 92.6268 109.064 91.3689 109.796Z" fill="#89C5CC"/>
<path fill-rule="evenodd" clip-rule="evenodd" d="M89.562 127.181C89.7432 133.44 89.656 139.696 90.843 145.867C91.0687 147.039 91.2254 151.291 92.1518 152.162C94.4307 154.304 94.4683 150.199 94.5568 148.625C94.8729 142.99 94.2815 137.179 94.1508 131.532C94.1225 130.316 94.4446 127.799 93.8708 126.622C92.9606 124.755 89.4734 124.2 89.562 127.181Z" fill="#C1DEE2"/>
<path fill-rule="evenodd" clip-rule="evenodd" d="M85.1063 122.106C75.9731 132.357 63.3964 131.602 50.7261 132.5C44.0317 132.974 37.2627 133.948 31.8758 138.278C29.3703 140.293 27.21 142.816 25.7585 145.691C25.124 146.948 22.1142 154.201 26.6344 152.481C28.2376 151.87 29.8157 147.074 30.8525 145.655C32.8273 142.953 35.3541 140.722 38.3852 139.272C44.2324 136.475 51.2141 136.523 57.5539 136.168C64.1811 135.797 71.2944 135.45 77.3863 132.568C80.2519 131.212 82.9405 129.522 85.2467 127.343C86.0708 126.564 87.838 125.241 87.9696 124.05C88.1202 122.689 86.8119 120.197 85.1063 122.106Z" fill="#C1DEE2"/>
<path fill-rule="evenodd" clip-rule="evenodd" d="M38.9999 153.569C30.4206 153.856 21.8525 154.203 13.2852 154.746C11.5296 154.857 5.67595 154.502 7.16694 158.1C8.36176 160.983 15.5006 159.076 17.862 158.936C26.7893 158.406 35.7533 158.222 44.6617 157.419C46.663 157.239 55.7085 157.31 51.9734 153.764C50.1964 152.076 41.4549 153.486 38.9999 153.569Z" fill="#89C5CC"/>
<path fill-rule="evenodd" clip-rule="evenodd" d="M1.71948 157.707C-0.984867 161.259 0.257697 169.891 0.462087 174.161C0.659989 178.298 -0.143669 185.863 5.25715 186.505C3.54231 186.28 6.55904 186.609 7.04985 186.635C8.14643 186.694 9.24809 186.713 10.3461 186.725C12.8826 186.753 15.4206 186.719 17.9567 186.668C23.7019 186.554 29.4619 186.386 35.1996 186.069C37.6115 185.935 50.6958 186.047 51.2139 183.541C51.8758 180.339 39.3306 182.151 37.085 182.253C31.6156 182.504 26.1379 182.557 20.6638 182.628C17.9507 182.664 15.2347 182.691 12.5216 182.638C11.4014 182.616 6.96458 183.076 6.28374 182.328C5.70301 181.692 6.15628 175.842 6.14377 174.947C6.10391 172.03 6.10716 169.107 6.21097 166.191C6.28096 164.228 7.3423 160.493 6.47747 158.649C5.63627 156.856 3.18451 156.244 1.71948 157.707Z" fill="#89C5CC"/>
<path fill-rule="evenodd" clip-rule="evenodd" d="M45.8949 157.873C46.0515 164.371 46.1002 170.999 47.6348 177.354C48.1455 179.468 48.8611 183.829 50.9857 184.924C53.2154 186.073 55.1407 184.433 55.2862 182.223C55.4697 179.446 53.9825 175.799 53.6775 172.949C53.3211 169.624 53.1139 166.296 52.992 162.954C52.8998 160.441 53.6636 156.673 51.2679 155.053C49.116 153.597 45.8249 155.063 45.8949 157.873Z" fill="#89C5CC"/>
<path fill-rule="evenodd" clip-rule="evenodd" d="M62.968 156.287C60.2998 158.945 61.4923 167.36 61.826 170.775C62.0703 173.276 64.808 185.581 68.9102 179.164C70.7247 176.326 68.4194 168.821 68.4356 165.511C68.4462 163.403 69.1924 160.738 68.8323 158.713C68.3563 156.037 65.3883 153.87 62.968 156.287Z" fill="#89C5CC"/>
<path fill-rule="evenodd" clip-rule="evenodd" d="M81.4429 154.093C89.4572 153.266 97.4813 152.646 105.54 152.569C105.927 152.566 106.333 152.561 106.756 152.556C112.279 152.486 120.579 152.38 124.296 156.528C126.321 158.787 127.238 162.28 128.038 165.325C128.187 165.892 128.332 166.445 128.48 166.971C128.605 167.42 128.769 167.932 128.946 168.486C129.781 171.1 130.911 174.637 129.765 176.826C129.137 178.027 128.126 179.051 126.591 178.626C126.233 178.526 125.952 178.399 125.732 178.249C126.32 178.885 126.58 179.792 126.198 180.678C125.46 182.392 123.129 182.429 121.291 182.457C120.846 182.464 120.43 182.471 120.072 182.501C113.953 183.011 107.806 183.351 101.666 183.405C98.7423 183.43 95.8183 183.406 92.8944 183.383C89.8846 183.358 86.8749 183.333 83.8657 183.363C81.6813 183.384 79.4566 183.592 77.2313 183.8C74.4216 184.062 71.6109 184.324 68.8785 184.212C66.8341 184.128 64.6511 183.459 65.1693 180.817C65.5918 178.66 67.6218 178.472 69.4412 178.303C69.5995 178.289 69.7562 178.274 69.9101 178.258C75.7026 177.669 81.4983 177.46 87.3204 177.481C99.5514 177.523 111.773 177.46 124.003 177.396C124.506 177.438 124.979 177.63 125.369 177.922C124.929 177.388 124.938 176.676 124.947 175.919C124.951 175.576 124.955 175.223 124.918 174.874C124.843 174.171 124.775 173.471 124.706 172.772C124.48 170.463 124.256 168.171 123.815 165.849C123.749 165.498 123.685 165.112 123.617 164.704C123.216 162.293 122.686 159.098 120.769 157.796C118.841 156.487 115.061 156.55 112.115 156.599C111.32 156.612 110.585 156.624 109.964 156.608C102.103 156.405 94.1966 156.964 86.3709 157.675C85.7701 157.73 85.1681 157.782 84.5654 157.835C81.5882 158.094 78.5954 158.355 75.6611 158.887C75.1243 158.985 74.304 159.271 73.363 159.6C70.8597 160.473 67.503 161.644 66.3625 160.354C62.5838 156.081 79.1885 154.326 81.4429 154.093Z" fill="#89C5CC"/>
<path fill-rule="evenodd" clip-rule="evenodd" d="M166.707 144.363C167.056 144.811 167.056 144.811 166.707 144.363V144.363ZM112.473 117.887C107.605 120.748 116.614 129.143 118.909 130.441C124.073 133.363 131.17 133.804 136.936 134.625C144.234 135.666 152.176 136.049 159.19 138.44C162.179 139.459 164.077 141.049 166.034 143.493C167.026 144.732 169.413 150.069 171.587 148.805C175.965 146.261 164.169 135.583 161.57 134.435C155.662 131.825 148.678 131.094 142.361 130.081C136.487 129.138 130.486 128.437 124.757 126.775C121.607 125.862 119.368 124.388 117.552 121.567C116.42 119.809 115.492 116.121 112.473 117.887Z" fill="#C1DEE2"/>
<path fill-rule="evenodd" clip-rule="evenodd" d="M187.091 150.681C181.479 150.806 175.878 151.238 170.278 151.669C167.136 151.911 163.995 152.153 160.853 152.341C159.87 152.4 158.886 152.453 157.902 152.506L157.902 152.506L157.902 152.506C155.133 152.655 152.361 152.804 149.606 153.083C149.188 153.125 148.703 153.165 148.174 153.208C145.834 153.4 142.644 153.662 140.605 154.516C138.736 153.102 135.851 154.304 135.806 156.824C135.729 161.414 135.771 165.923 136.331 170.485C136.461 171.544 137.13 176.905 138.586 179.696C138.068 182.332 140.315 183.07 142.406 183.272C150.506 184.054 158.999 183.447 167.378 182.849C171.639 182.544 175.871 182.242 180.006 182.125C181.381 182.086 182.774 182.071 184.175 182.055C188.747 182.004 193.407 181.952 197.833 181.087C198.011 181.052 198.202 181.018 198.402 180.982C200.152 180.669 202.565 180.236 202.749 178.31C202.859 177.154 202.207 176.096 201.116 175.947C201.191 174.984 201.07 173.933 200.981 173.161L200.981 173.161C200.96 172.981 200.941 172.816 200.927 172.671C200.661 169.993 199.994 167.332 199.335 164.705L199.335 164.705L199.335 164.705C199.187 164.114 199.04 163.525 198.897 162.939C198.739 162.289 198.593 161.515 198.435 160.682C197.879 157.739 197.179 154.042 195.32 152.325C193.369 150.525 190.194 150.604 187.65 150.668C187.46 150.673 187.273 150.678 187.091 150.681ZM196.966 176.235C196.301 174.493 196.106 172.138 195.921 169.899V169.899C195.805 168.494 195.692 167.134 195.47 166.001C195.302 165.151 195.165 164.255 195.026 163.344L195.026 163.344C194.688 161.131 194.337 158.832 193.506 156.893C192.394 154.296 191.404 154.395 189.062 154.63C188.627 154.674 188.144 154.722 187.606 154.759C185.219 154.921 182.834 155.127 180.45 155.334L180.45 155.334C179.306 155.433 178.162 155.532 177.018 155.626C172.122 156.028 167.223 156.338 162.324 156.647L162.324 156.647C159.462 156.828 156.599 157.008 153.737 157.208C151.491 157.364 149.298 157.791 147.115 158.216C145.386 158.553 143.662 158.889 141.922 159.088C141.897 159.683 141.847 160.28 141.799 160.849C141.734 161.624 141.674 162.346 141.687 162.937C141.744 165.559 141.975 168.164 142.207 170.774C142.243 171.175 142.278 171.576 142.313 171.978C142.355 172.459 142.459 173.077 142.574 173.763C142.751 174.824 142.956 176.046 143.001 177.171C143.213 177.17 143.424 177.171 143.631 177.171C143.899 177.172 144.162 177.173 144.415 177.169C150.583 177.061 156.747 176.874 162.912 176.637C163.699 176.607 164.486 176.576 165.273 176.546C170.773 176.332 176.273 176.117 181.778 176.054C183.965 176.029 186.18 176.098 188.403 176.167C191.262 176.255 194.132 176.344 196.966 176.235Z" fill="#89C5CC"/>
</g>
</svg>
